name C:\Users\u0150099\Documents\master_thesis\3dpredictsim\Results\debug\Fal_s1_mtjc2_sc_cspx10_oy_MTc2_MTPm_k1_d01_MTJm_nl_MG_exp5_table_d01_PF_Natali2010_ls146_ig21.mot
datacolumns 128
datarows 4
range 1.59778136 1.62973699
endheader
time	pelvis_tilt	pelvis_list	pelvis_rotation	pelvis_tx	pelvis_ty	pelvis_tz	hip_flexion_l	hip_adduction_l	hip_rotation_l	hip_flexion_r	hip_adduction_r	hip_rotation_r	knee_angle_l	knee_angle_r	ankle_angle_l	ankle_angle_r	subtalar_angle_l	subtalar_angle_r	mtj_angle_l	mtj_angle_r	mtp_angle_l	mtp_angle_r	lumbar_extension	lumbar_bending	lumbar_rotation	arm_flex_l	arm_add_l	arm_rot_l	arm_flex_r	arm_add_r	arm_rot_r	elbow_flex_l	elbow_flex_r	pro_sup_l	pro_sup_r	glut_med1_l/activation	glut_med2_l/activation	glut_med3_l/activation	glut_min1_l/activation	glut_min2_l/activation	glut_min3_l/activation	semimem_l/activation	semiten_l/activation	bifemlh_l/activation	bifemsh_l/activation	sar_l/activation	add_long_l/activation	add_brev_l/activation	add_mag1_l/activation	add_mag2_l/activation	add_mag3_l/activation	tfl_l/activation	pect_l/activation	grac_l/activation	glut_max1_l/activation	glut_max2_l/activation	glut_max3_l/activation	iliacus_l/activation	psoas_l/activation	quad_fem_l/activation	gem_l/activation	peri_l/activation	rect_fem_l/activation	vas_med_l/activation	vas_int_l/activation	vas_lat_l/activation	med_gas_l/activation	lat_gas_l/activation	soleus_l/activation	tib_post_l/activation	flex_dig_l/activation	flex_hal_l/activation	tib_ant_l/activation	per_brev_l/activation	per_long_l/activation	per_tert_l/activation	ext_dig_l/activation	ext_hal_l/activation	ercspn_l/activation	intobl_l/activation	extobl_l/activation	glut_med1_r/activation	glut_med2_r/activation	glut_med3_r/activation	glut_min1_r/activation	glut_min2_r/activation	glut_min3_r/activation	semimem_r/activation	semiten_r/activation	bifemlh_r/activation	bifemsh_r/activation	sar_r/activation	add_long_r/activation	add_brev_r/activation	add_mag1_r/activation	add_mag2_r/activation	add_mag3_r/activation	tfl_r/activation	pect_r/activation	grac_r/activation	glut_max1_r/activation	glut_max2_r/activation	glut_max3_r/activation	iliacus_r/activation	psoas_r/activation	quad_fem_r/activation	gem_r/activation	peri_r/activation	rect_fem_r/activation	vas_med_r/activation	vas_int_r/activation	vas_lat_r/activation	med_gas_r/activation	lat_gas_r/activation	soleus_r/activation	tib_post_r/activation	flex_dig_r/activation	flex_hal_r/activation	tib_ant_r/activation	per_brev_r/activation	per_long_r/activation	per_tert_r/activation	ext_dig_r/activation	ext_hal_r/activation	ercspn_r/activation	intobl_r/activation	extobl_r/activation	
          1.59778136	         -2.92455773	          0.71949730	         -2.52947052	          2.12504921	          0.91541420	          0.00150961	         27.87543955	          2.91034870	         -1.37377739	        -21.50628256	          2.10349708	          9.93610748	        -12.31048247	         -1.72435703	          5.56137025	         -7.74943553	         -2.14304415	         -3.72891738	          3.01362124	          1.43328132	         -4.94224510	         24.79648619	         -3.59132694	          0.29536170	          1.45010770	         -0.99230205	        -13.48554111	         14.17206729	          4.45194543	        -13.67861016	         19.37797834	         20.07987784	         28.73767496	         86.51662706	         86.51662706	          0.05000114	          0.05000391	          0.05000127	          0.05003016	          0.05001350	          0.05000436	          0.22258730	          0.08163497	          0.34531951	          0.05000276	          0.05000449	          0.11430046	          0.13734663	          0.15197106	          0.10202671	          0.14831025	          0.05000168	          0.05004829	          0.08163387	          0.05000275	          0.05000252	          0.12451695	          0.06277138	          0.08738195	          0.08364030	          0.05000866	          0.05000168	          0.05000100	          0.05278339	          0.05146475	          0.05002503	          0.05808269	          0.05064307	          0.05085236	          0.13821499	          0.06932853	          0.06932682	          0.32968018	          0.23352895	          0.17928500	          0.27822461	          0.53691880	          0.27309300	          0.06038182	          0.10545808	          0.13274384	          0.45695755	          0.08995978	          0.05000106	          0.64428229	          0.22825609	          0.09612886	          0.05000401	          0.05000076	          0.05000057	          0.09323335	          0.13866947	          0.05000088	          0.05000101	          0.05000154	          0.05000508	          0.05000360	          0.62470133	          0.05000565	          0.05000213	          0.05001055	          0.05000608	          0.05000490	          0.59726032	          0.85553171	          0.05000063	          0.05000299	          0.05000143	          0.30326658	          0.06215359	          0.06361106	          0.05887854	          0.43324669	          0.52760756	          0.30232424	          0.38947110	          0.49521832	          0.46894147	          0.05000010	          0.05887789	          0.10333537	          0.05000032	          0.05000019	          0.13449966	          0.05000012	          0.05000038	          0.05000019	
          1.60843324	         -2.92899559	          0.85552887	         -2.85711497	          2.14125048	          0.91393940	          0.00137887	         27.77730839	          3.28617156	         -1.22685926	        -21.57235247	          1.72196846	          9.90316308	        -12.46635832	         -3.28386819	          5.21414775	         -7.76955894	         -2.34772070	         -2.43722887	          3.05372532	          0.48685209	         -4.76955525	         26.74519175	         -3.49874790	          0.06142265	          1.55687997	         -1.50465595	        -13.45943423	         13.91414125	          4.27195927	        -13.62842995	         19.37189282	         18.95241646	         30.03287872	         86.51662706	         86.51662706	          0.11648059	          0.05000139	          0.05887623	          0.05000062	          0.05000086	          0.05000514	          0.18902914	          0.06932840	          0.31917724	          0.06932873	          0.05000835	          0.09707050	          0.15938197	          0.12907598	          0.08664659	          0.15798691	          0.06241195	          0.05018436	          0.06932933	          0.05887637	          0.05887690	          0.14157457	          0.05331542	          0.07420945	          0.23083431	          0.05002103	          0.05555359	          0.05000016	          0.05000046	          0.05000026	          0.05000025	          0.05383098	          0.05000532	          0.05000431	          0.15109424	          0.05887681	          0.05887731	          0.34076299	          0.27164538	          0.20995309	          0.25698187	          0.55230762	          0.25692174	          0.05887641	          0.08955988	          0.11273092	          0.42552254	          0.08114364	          0.05000051	          0.61661573	          0.19384321	          0.08163630	          0.05000387	          0.05000052	          0.05000037	          0.07917707	          0.11776414	          0.05000014	          0.05000018	          0.05000032	          0.05000122	          0.05000106	          0.55772635	          0.05000084	          0.05000057	          0.05001161	          0.05000405	          0.05000185	          0.50721432	          0.81344478	          0.05000017	          0.05000084	          0.05000036	          0.29754044	          0.05278377	          0.05402148	          0.05000302	          0.38397010	          0.47789904	          0.29997429	          0.33075237	          0.42055874	          0.39824192	          0.05000007	          0.05000118	          0.08775596	          0.05000022	          0.05000016	          0.11422176	          0.05000005	          0.05000006	          0.05000018	
          1.61908511	         -2.93017638	          0.99603917	         -3.18115893	          2.15785294	          0.91259052	          0.00122559	         27.66420562	          3.65650815	         -1.04519938	        -21.55642210	          1.31469644	          9.82600416	        -13.29490830	         -4.95411054	          4.59799255	         -7.91604123	         -2.58211658	         -1.07178681	          3.14862987	         -0.72547595	         -4.59119266	         28.98688664	         -3.37953639	         -0.18041781	          1.65869219	         -2.09787730	        -13.44970882	         13.82995730	          3.99641702	        -13.57408218	         19.28813591	         17.92588442	         31.37498284	         86.51662706	         86.51662706	          0.10475935	          0.05000300	          0.05000036	          0.05887700	          0.05887640	          0.05000276	          0.16053010	          0.05887620	          0.27105637	          0.05887653	          0.08163356	          0.13333036	          0.19014550	          0.21630530	          0.07358440	          0.18455703	          0.05300379	          0.08162673	          0.05887728	          0.05000089	          0.05000061	          0.17503014	          0.08163662	          0.08163667	          0.49135059	          0.11320190	          0.05000106	          0.08163738	          0.05000199	          0.17350085	          0.09532684	          0.05000009	          0.05000017	          0.05000002	          0.15819141	          0.05000058	          0.05000107	          0.39252626	          0.28561988	          0.17830061	          0.50148088	          0.60293796	          0.41030790	          0.05000006	          0.07605736	          0.09573501	          0.36136864	          0.06891021	          0.05001253	          0.52365150	          0.16461843	          0.06932862	          0.05001261	          0.05000151	          0.05000173	          0.06724002	          0.10000967	          0.06410541	          0.05000638	          0.05000441	          0.05001164	          0.05001012	          0.47364232	          0.06015515	          0.05000990	          0.05000830	          0.05000596	          0.05000732	          0.43074392	          0.69080544	          0.05000170	          0.05002305	          0.05887648	          0.26402750	          0.05000416	          0.05000376	          0.08389586	          0.32608080	          0.40733917	          0.29081098	          0.28088631	          0.35715333	          0.33820092	          0.06297224	          0.05000008	          0.07452540	          0.05000012	          0.05000010	          0.09700107	          0.05000010	          0.06932913	          0.05417071	
          1.62973699	         -2.92854311	          1.15794893	         -3.50482186	          2.17484114	          0.91134767	          0.00106329	         27.47916104	          3.99480699	         -0.79278440	        -21.45701094	          0.87047357	          9.69147994	        -14.63609631	         -6.72705739	          3.96959198	         -8.21577589	         -2.84092140	          0.32211064	          3.22430355	         -2.17149401	         -4.35896220	         31.43433737	         -3.23261912	         -0.44394628	          1.75433415	         -2.77375942	        -13.45703148	         13.88696697	          3.62981528	        -13.52567361	         19.18361275	         17.00864003	         32.77413857	         86.51662706	         86.51662706	          0.23918919	          0.05000034	          0.08984317	          0.05000064	          0.05000051	          0.05000088	          0.13632795	          0.05000011	          0.23019045	          0.05000010	          0.06932864	          0.11322914	          0.16170955	          0.18369638	          0.06249133	          0.22650209	          0.05000385	          0.06933663	          0.05000093	          0.05000249	          0.18930020	          0.24409816	          0.06932898	          0.06932891	          0.41727297	          0.09613561	          0.06932506	          0.06932931	          0.06951828	          0.14734313	          0.08095524	          0.06640524	          0.06932888	          0.06932674	          0.16421953	          0.05000021	          0.05000034	          0.45020357	          0.32484933	          0.21972460	          0.57605373	          0.62004289	          0.39243410	          0.05000017	          0.06459081	          0.08130148	          0.30688901	          0.05852112	          0.05000035	          0.44470322	          0.13979973	          0.05887641	          0.05000553	          0.05000115	          0.05000087	          0.05710275	          0.08493192	          0.10715529	          0.13722887	          0.05006254	          0.05001953	          0.05000693	          0.40223524	          0.08162612	          0.05000727	          0.05001704	          0.05001023	          0.05000966	          0.36580268	          0.61803578	          0.05000166	          0.05000225	          0.05000018	          0.22422131	          0.10585105	          0.12713547	          0.07125445	          0.27691906	          0.34592686	          0.26487693	          0.23853833	          0.30330703	          0.28721195	          0.20541069	          0.17521992	          0.06999606	          0.05000658	          0.08064477	          0.08237666	          0.06051647	          0.05887670	          0.05000221	
